<svg width="113" height="52" viewBox="0 0 113 52" fill="none" xmlns="http://www.w3.org/2000/svg">
<path d="M28.6234 19V18.375H37.2734C38.0568 18.375 38.7234 18.2583 39.2734 18.025C39.8401 17.775 40.2734 17.3167 40.5734 16.65C40.8734 15.9833 41.0234 15.025 41.0234 13.775C41.0234 12.6417 40.8818 11.7667 40.5984 11.15C40.3151 10.5167 39.8484 10.075 39.1984 9.825C38.5484 9.575 37.6568 9.45 36.5234 9.45L35.7734 8.7C37.5068 8.7 39.0568 8.89167 40.4234 9.275C41.7901 9.64167 42.8651 10.2083 43.6484 10.975C44.4484 11.7417 44.8484 12.7167 44.8484 13.9C44.8484 14.9 44.5568 15.7833 43.9734 16.55C43.4068 17.3167 42.6234 17.9167 41.6234 18.35C40.6401 18.7833 39.5234 19 38.2734 19H28.6234ZM31.3734 18.625V0.15H34.7234V18.625H31.3734ZM33.9484 9.45V8.7H37.2734C38.0401 8.7 38.6568 8.6 39.1234 8.4C39.6068 8.18333 39.9568 7.8 40.1734 7.25C40.4068 6.68333 40.5234 5.86667 40.5234 4.8C40.5234 3.66667 40.4068 2.81667 40.1734 2.25C39.9401 1.66667 39.5818 1.275 39.0984 1.075C38.6151 0.874999 38.0068 0.774999 37.2734 0.774999H28.6234V0.15H38.2734C39.3734 0.15 40.3651 0.35 41.2484 0.75C42.1318 1.13333 42.8318 1.66667 43.3484 2.35C43.8818 3.03333 44.1484 3.81667 44.1484 4.7C44.1484 5.63333 43.8401 6.45833 43.2234 7.175C42.6068 7.89167 41.7818 8.45 40.7484 8.85C39.7151 9.25 38.5568 9.45 37.2734 9.45H33.9484ZM53.2016 10.45V9.7H55.2766C56.4099 9.7 57.3266 9.58333 58.0266 9.35C58.7266 9.1 59.2349 8.64167 59.5516 7.975C59.8682 7.29167 60.0266 6.31667 60.0266 5.05C60.0266 3.86667 59.8932 2.96667 59.6266 2.35C59.3766 1.73333 58.9932 1.31667 58.4766 1.1C57.9599 0.883333 57.3099 0.774999 56.5266 0.774999H47.8766V0.15H57.5266C58.7266 0.15 59.8016 0.366666 60.7516 0.799999C61.7182 1.23333 62.4849 1.83333 63.0516 2.6C63.6182 3.35 63.9016 4.21667 63.9016 5.2C63.9016 6.23333 63.5516 7.15 62.8516 7.95C62.1682 8.73333 61.1849 9.35 59.9016 9.8C58.6182 10.2333 57.0766 10.45 55.2766 10.45H53.2016ZM47.8766 19V18.375H57.2266V19H47.8766ZM50.6266 18.625V0.15H53.9766V18.625H50.6266ZM71.5914 9.325V8.575H73.6664C74.6664 8.575 75.4747 8.46667 76.0914 8.25C76.7247 8.03333 77.1831 7.625 77.4664 7.025C77.7664 6.40833 77.9164 5.525 77.9164 4.375C77.9164 3.35833 77.8081 2.6 77.5914 2.1C77.3747 1.58333 77.0414 1.23333 76.5914 1.05C76.1581 0.866666 75.5997 0.774999 74.9164 0.774999H66.2664V0.15H75.9164C76.9997 0.15 77.9831 0.325 78.8664 0.674999C79.7664 1.00833 80.4747 1.49167 80.9914 2.125C81.5247 2.75833 81.7914 3.53333 81.7914 4.45C81.7914 5.41667 81.4664 6.26667 80.8164 7C80.1664 7.73333 79.2331 8.30833 78.0164 8.725C76.8164 9.125 75.3664 9.325 73.6664 9.325H71.5914ZM66.2664 19V18.375H75.6164V19H66.2664ZM69.0164 18.625V0.15H72.3664V18.625H69.0164ZM81.7914 19C80.9747 19 80.2331 18.8417 79.5664 18.525C78.9164 18.2083 78.3997 17.7667 78.0164 17.2C77.6331 16.6167 77.4247 15.9417 77.3914 15.175L77.3164 13.2C77.2664 11.8833 76.9247 10.9083 76.2914 10.275C75.6581 9.64167 74.8497 9.325 73.8664 9.325L75.7664 9.05H76.6914V9.15C77.4081 9.31667 78.0914 9.64167 78.7414 10.125C79.4081 10.6083 79.9581 11.1917 80.3914 11.875C80.8247 12.5583 81.0414 13.3 81.0414 14.1V15.4C81.0414 16.55 81.1664 17.3333 81.4164 17.75C81.6664 18.1667 82.1164 18.375 82.7664 18.375H83.7164V19H81.7914ZM4.27773 47H0.552734V33.85H4.27773V47ZM4.62773 30.05C4.62773 30.7333 4.40273 31.275 3.95273 31.675C3.5194 32.0583 3.00273 32.25 2.40273 32.25C1.80273 32.25 1.27773 32.0583 0.827734 31.675C0.394401 31.275 0.177734 30.7333 0.177734 30.05C0.177734 29.3667 0.394401 28.8333 0.827734 28.45C1.27773 28.05 1.80273 27.85 2.40273 27.85C3.00273 27.85 3.5194 28.05 3.95273 28.45C4.40273 28.8333 4.62773 29.3667 4.62773 30.05ZM16.1602 30.575L19.8852 29.975V33.85H24.3602V36.95H19.8852V41.575C19.8852 42.3583 20.0185 42.9833 20.2852 43.45C20.5685 43.9167 21.1268 44.15 21.9602 44.15C22.3602 44.15 22.7685 44.1167 23.1852 44.05C23.6185 43.9667 24.0102 43.8583 24.3602 43.725L24.8852 46.625C24.4352 46.8083 23.9352 46.9667 23.3852 47.1C22.8352 47.2333 22.1602 47.3 21.3602 47.3C20.3435 47.3 19.5018 47.1667 18.8352 46.9C18.1685 46.6167 17.6352 46.2333 17.2352 45.75C16.8352 45.25 16.5518 44.65 16.3852 43.95C16.2352 43.25 16.1602 42.475 16.1602 41.625V30.575ZM36.5686 37.15C36.2352 37.0667 35.8436 36.9833 35.3936 36.9C34.9436 36.8 34.4602 36.75 33.9436 36.75C33.7102 36.75 33.4269 36.775 33.0936 36.825C32.7769 36.8583 32.5352 36.9 32.3686 36.95V47H28.6436V34.55C29.3102 34.3167 30.0936 34.1 30.9936 33.9C31.9102 33.6833 32.9269 33.575 34.0436 33.575C34.2436 33.575 34.4852 33.5917 34.7686 33.625C35.0519 33.6417 35.3352 33.675 35.6186 33.725C35.9019 33.7583 36.1852 33.8083 36.4686 33.875C36.7519 33.925 36.9936 33.9917 37.1936 34.075L36.5686 37.15ZM45.2213 44.4C45.588 44.4 45.938 44.3917 46.2713 44.375C46.6046 44.3583 46.8713 44.3333 47.0713 44.3V41.475C46.9213 41.4417 46.6963 41.4083 46.3963 41.375C46.0963 41.3417 45.8213 41.325 45.5713 41.325C45.2213 41.325 44.888 41.35 44.5713 41.4C44.2713 41.4333 44.0046 41.5083 43.7713 41.625C43.538 41.7417 43.3546 41.9 43.2213 42.1C43.088 42.3 43.0213 42.55 43.0213 42.85C43.0213 43.4333 43.213 43.8417 43.5963 44.075C43.9963 44.2917 44.538 44.4 45.2213 44.4ZM44.9213 33.5C46.0213 33.5 46.938 33.625 47.6713 33.875C48.4046 34.125 48.988 34.4833 49.4213 34.95C49.8713 35.4167 50.188 35.9833 50.3713 36.65C50.5546 37.3167 50.6463 38.0583 50.6463 38.875V46.625C50.113 46.7417 49.3713 46.875 48.4213 47.025C47.4713 47.1917 46.3213 47.275 44.9713 47.275C44.1213 47.275 43.3463 47.2 42.6463 47.05C41.963 46.9 41.3713 46.6583 40.8713 46.325C40.3713 45.975 39.988 45.525 39.7213 44.975C39.4546 44.425 39.3213 43.75 39.3213 42.95C39.3213 42.1833 39.4713 41.5333 39.7713 41C40.088 40.4667 40.5046 40.0417 41.0213 39.725C41.538 39.4083 42.1296 39.1833 42.7963 39.05C43.463 38.9 44.1546 38.825 44.8713 38.825C45.3546 38.825 45.7796 38.85 46.1463 38.9C46.5296 38.9333 46.838 38.9833 47.0713 39.05V38.7C47.0713 38.0667 46.8796 37.5583 46.4963 37.175C46.113 36.7917 45.4463 36.6 44.4963 36.6C43.863 36.6 43.238 36.65 42.6213 36.75C42.0046 36.8333 41.4713 36.9583 41.0213 37.125L40.5463 34.125C40.763 34.0583 41.0296 33.9917 41.3463 33.925C41.6796 33.8417 42.038 33.775 42.4213 33.725C42.8046 33.6583 43.2046 33.6083 43.6213 33.575C44.0546 33.525 44.488 33.5 44.9213 33.5ZM62.4896 40.025C62.4896 38.825 62.3313 37.975 62.0146 37.475C61.7146 36.975 61.1896 36.725 60.4396 36.725C60.2063 36.725 59.9646 36.7417 59.7146 36.775C59.4646 36.7917 59.223 36.8167 58.9896 36.85V47H55.2646V34.3C55.5813 34.2167 55.948 34.1333 56.3646 34.05C56.798 33.95 57.248 33.8667 57.7146 33.8C58.198 33.7167 58.6896 33.6583 59.1896 33.625C59.6896 33.575 60.1813 33.55 60.6646 33.55C61.6146 33.55 62.3813 33.675 62.9646 33.925C63.5646 34.1583 64.0563 34.4417 64.4396 34.775C64.973 34.3917 65.5813 34.0917 66.2646 33.875C66.9646 33.6583 67.6063 33.55 68.1896 33.55C69.2396 33.55 70.098 33.7 70.7646 34C71.448 34.2833 71.9896 34.6917 72.3896 35.225C72.7896 35.7583 73.0646 36.3917 73.2146 37.125C73.3646 37.8583 73.4396 38.675 73.4396 39.575V47H69.7146V40.025C69.7146 38.825 69.5563 37.975 69.2396 37.475C68.9396 36.975 68.4146 36.725 67.6646 36.725C67.4646 36.725 67.1813 36.775 66.8146 36.875C66.4646 36.975 66.173 37.1 65.9396 37.25C66.0563 37.6333 66.1313 38.0417 66.1646 38.475C66.198 38.8917 66.2146 39.3417 66.2146 39.825V47H62.4896V40.025ZM86.4973 40.525C86.4973 39.375 86.2389 38.4583 85.7223 37.775C85.2056 37.075 84.4389 36.725 83.4223 36.725C83.0889 36.725 82.7806 36.7417 82.4973 36.775C82.2139 36.7917 81.9806 36.8167 81.7973 36.85V43.575C82.0306 43.725 82.3306 43.85 82.6973 43.95C83.0806 44.05 83.4639 44.1 83.8473 44.1C85.6139 44.1 86.4973 42.9083 86.4973 40.525ZM90.2973 40.425C90.2973 41.4417 90.1723 42.3667 89.9223 43.2C89.6723 44.0333 89.3056 44.75 88.8223 45.35C88.3389 45.95 87.7389 46.4167 87.0223 46.75C86.3056 47.0833 85.4806 47.25 84.5473 47.25C84.0306 47.25 83.5473 47.2 83.0973 47.1C82.6473 47 82.2139 46.8583 81.7973 46.675V51.625H78.0723V34.3C78.4056 34.2 78.7889 34.1083 79.2223 34.025C79.6556 33.925 80.1056 33.8417 80.5723 33.775C81.0556 33.7083 81.5389 33.6583 82.0223 33.625C82.5223 33.575 82.9973 33.55 83.4473 33.55C84.5306 33.55 85.4973 33.7167 86.3473 34.05C87.1973 34.3667 87.9139 34.825 88.4973 35.425C89.0806 36.0083 89.5223 36.725 89.8223 37.575C90.1389 38.425 90.2973 39.375 90.2973 40.425ZM95.4352 27.025L98.9852 31.075L97.2852 32.6L93.1602 29.125L95.4352 27.025ZM106.588 44.325C107.272 44.325 107.755 44.2583 108.038 44.125C108.322 43.9917 108.463 43.7333 108.463 43.35C108.463 43.05 108.28 42.7917 107.913 42.575C107.547 42.3417 106.988 42.0833 106.238 41.8C105.655 41.5833 105.122 41.3583 104.638 41.125C104.172 40.8917 103.772 40.6167 103.438 40.3C103.105 39.9667 102.847 39.575 102.663 39.125C102.48 38.675 102.388 38.1333 102.388 37.5C102.388 36.2667 102.847 35.2917 103.763 34.575C104.68 33.8583 105.938 33.5 107.538 33.5C108.338 33.5 109.105 33.575 109.838 33.725C110.572 33.8583 111.155 34.0083 111.588 34.175L110.938 37.075C110.505 36.925 110.03 36.7917 109.513 36.675C109.013 36.5583 108.447 36.5 107.813 36.5C106.647 36.5 106.063 36.825 106.063 37.475C106.063 37.625 106.088 37.7583 106.138 37.875C106.188 37.9917 106.288 38.1083 106.438 38.225C106.588 38.325 106.788 38.4417 107.038 38.575C107.305 38.6917 107.638 38.825 108.038 38.975C108.855 39.275 109.53 39.575 110.063 39.875C110.597 40.1583 111.013 40.475 111.313 40.825C111.63 41.1583 111.847 41.5333 111.963 41.95C112.097 42.3667 112.163 42.85 112.163 43.4C112.163 44.7 111.672 45.6833 110.688 46.35C109.722 47.0167 108.347 47.35 106.563 47.35C105.397 47.35 104.422 47.25 103.638 47.05C102.872 46.85 102.338 46.6833 102.038 46.55L102.663 43.525C103.297 43.775 103.947 43.975 104.613 44.125C105.28 44.2583 105.938 44.325 106.588 44.325Z" fill="white"/>
</svg>
