<svg width="113" height="53" viewBox="0 0 113 53" fill="none" xmlns="http://www.w3.org/2000/svg">
<path d="M28.6234 19.5V18.875H37.2734C38.0568 18.875 38.7234 18.7583 39.2734 18.525C39.8401 18.275 40.2734 17.8167 40.5734 17.15C40.8734 16.4833 41.0234 15.525 41.0234 14.275C41.0234 13.1417 40.8818 12.2667 40.5984 11.65C40.3151 11.0167 39.8484 10.575 39.1984 10.325C38.5484 10.075 37.6568 9.95 36.5234 9.95L35.7734 9.2C37.5068 9.2 39.0568 9.39167 40.4234 9.775C41.7901 10.1417 42.8651 10.7083 43.6484 11.475C44.4484 12.2417 44.8484 13.2167 44.8484 14.4C44.8484 15.4 44.5568 16.2833 43.9734 17.05C43.4068 17.8167 42.6234 18.4167 41.6234 18.85C40.6401 19.2833 39.5234 19.5 38.2734 19.5H28.6234ZM31.3734 19.125V0.65H34.7234V19.125H31.3734ZM33.9484 9.95V9.2H37.2734C38.0401 9.2 38.6568 9.1 39.1234 8.9C39.6068 8.68333 39.9568 8.3 40.1734 7.75C40.4068 7.18333 40.5234 6.36667 40.5234 5.3C40.5234 4.16667 40.4068 3.31667 40.1734 2.75C39.9401 2.16667 39.5818 1.775 39.0984 1.575C38.6151 1.375 38.0068 1.275 37.2734 1.275H28.6234V0.65H38.2734C39.3734 0.65 40.3651 0.85 41.2484 1.25C42.1318 1.63333 42.8318 2.16667 43.3484 2.85C43.8818 3.53333 44.1484 4.31667 44.1484 5.2C44.1484 6.13333 43.8401 6.95833 43.2234 7.675C42.6068 8.39167 41.7818 8.95 40.7484 9.35C39.7151 9.75 38.5568 9.95 37.2734 9.95H33.9484ZM53.2016 10.95V10.2H55.2766C56.4099 10.2 57.3266 10.0833 58.0266 9.85C58.7266 9.6 59.2349 9.14167 59.5516 8.475C59.8682 7.79167 60.0266 6.81667 60.0266 5.55C60.0266 4.36667 59.8932 3.46667 59.6266 2.85C59.3766 2.23333 58.9932 1.81667 58.4766 1.6C57.9599 1.38333 57.3099 1.275 56.5266 1.275H47.8766V0.65H57.5266C58.7266 0.65 59.8016 0.866666 60.7516 1.3C61.7182 1.73333 62.4849 2.33333 63.0516 3.1C63.6182 3.85 63.9016 4.71667 63.9016 5.7C63.9016 6.73333 63.5516 7.65 62.8516 8.45C62.1682 9.23333 61.1849 9.85 59.9016 10.3C58.6182 10.7333 57.0766 10.95 55.2766 10.95H53.2016ZM47.8766 19.5V18.875H57.2266V19.5H47.8766ZM50.6266 19.125V0.65H53.9766V19.125H50.6266ZM71.5914 9.825V9.075H73.6664C74.6664 9.075 75.4747 8.96667 76.0914 8.75C76.7247 8.53333 77.1831 8.125 77.4664 7.525C77.7664 6.90833 77.9164 6.025 77.9164 4.875C77.9164 3.85833 77.8081 3.1 77.5914 2.6C77.3747 2.08333 77.0414 1.73333 76.5914 1.55C76.1581 1.36667 75.5997 1.275 74.9164 1.275H66.2664V0.65H75.9164C76.9997 0.65 77.9831 0.825 78.8664 1.175C79.7664 1.50833 80.4747 1.99167 80.9914 2.625C81.5247 3.25833 81.7914 4.03333 81.7914 4.95C81.7914 5.91667 81.4664 6.76667 80.8164 7.5C80.1664 8.23333 79.2331 8.80833 78.0164 9.225C76.8164 9.625 75.3664 9.825 73.6664 9.825H71.5914ZM66.2664 19.5V18.875H75.6164V19.5H66.2664ZM69.0164 19.125V0.65H72.3664V19.125H69.0164ZM81.7914 19.5C80.9747 19.5 80.2331 19.3417 79.5664 19.025C78.9164 18.7083 78.3997 18.2667 78.0164 17.7C77.6331 17.1167 77.4247 16.4417 77.3914 15.675L77.3164 13.7C77.2664 12.3833 76.9247 11.4083 76.2914 10.775C75.6581 10.1417 74.8497 9.825 73.8664 9.825L75.7664 9.55H76.6914V9.65C77.4081 9.81667 78.0914 10.1417 78.7414 10.625C79.4081 11.1083 79.9581 11.6917 80.3914 12.375C80.8247 13.0583 81.0414 13.8 81.0414 14.6V15.9C81.0414 17.05 81.1664 17.8333 81.4164 18.25C81.6664 18.6667 82.1164 18.875 82.7664 18.875H83.7164V19.5H81.7914Z" fill="#B32428"/>
<path d="M4.27773 47.5H0.552734V34.35H4.27773V47.5ZM4.62773 30.55C4.62773 31.2333 4.40273 31.775 3.95273 32.175C3.5194 32.5583 3.00273 32.75 2.40273 32.75C1.80273 32.75 1.27773 32.5583 0.827734 32.175C0.394401 31.775 0.177734 31.2333 0.177734 30.55C0.177734 29.8667 0.394401 29.3333 0.827734 28.95C1.27773 28.55 1.80273 28.35 2.40273 28.35C3.00273 28.35 3.5194 28.55 3.95273 28.95C4.40273 29.3333 4.62773 29.8667 4.62773 30.55ZM16.1602 31.075L19.8852 30.475V34.35H24.3602V37.45H19.8852V42.075C19.8852 42.8583 20.0185 43.4833 20.2852 43.95C20.5685 44.4167 21.1268 44.65 21.9602 44.65C22.3602 44.65 22.7685 44.6167 23.1852 44.55C23.6185 44.4667 24.0102 44.3583 24.3602 44.225L24.8852 47.125C24.4352 47.3083 23.9352 47.4667 23.3852 47.6C22.8352 47.7333 22.1602 47.8 21.3602 47.8C20.3435 47.8 19.5018 47.6667 18.8352 47.4C18.1685 47.1167 17.6352 46.7333 17.2352 46.25C16.8352 45.75 16.5518 45.15 16.3852 44.45C16.2352 43.75 16.1602 42.975 16.1602 42.125V31.075ZM36.5686 37.65C36.2352 37.5667 35.8436 37.4833 35.3936 37.4C34.9436 37.3 34.4602 37.25 33.9436 37.25C33.7102 37.25 33.4269 37.275 33.0936 37.325C32.7769 37.3583 32.5352 37.4 32.3686 37.45V47.5H28.6436V35.05C29.3102 34.8167 30.0936 34.6 30.9936 34.4C31.9102 34.1833 32.9269 34.075 34.0436 34.075C34.2436 34.075 34.4852 34.0917 34.7686 34.125C35.0519 34.1417 35.3352 34.175 35.6186 34.225C35.9019 34.2583 36.1852 34.3083 36.4686 34.375C36.7519 34.425 36.9936 34.4917 37.1936 34.575L36.5686 37.65ZM45.2213 44.9C45.588 44.9 45.938 44.8917 46.2713 44.875C46.6046 44.8583 46.8713 44.8333 47.0713 44.8V41.975C46.9213 41.9417 46.6963 41.9083 46.3963 41.875C46.0963 41.8417 45.8213 41.825 45.5713 41.825C45.2213 41.825 44.888 41.85 44.5713 41.9C44.2713 41.9333 44.0046 42.0083 43.7713 42.125C43.538 42.2417 43.3546 42.4 43.2213 42.6C43.088 42.8 43.0213 43.05 43.0213 43.35C43.0213 43.9333 43.213 44.3417 43.5963 44.575C43.9963 44.7917 44.538 44.9 45.2213 44.9ZM44.9213 34C46.0213 34 46.938 34.125 47.6713 34.375C48.4046 34.625 48.988 34.9833 49.4213 35.45C49.8713 35.9167 50.188 36.4833 50.3713 37.15C50.5546 37.8167 50.6463 38.5583 50.6463 39.375V47.125C50.113 47.2417 49.3713 47.375 48.4213 47.525C47.4713 47.6917 46.3213 47.775 44.9713 47.775C44.1213 47.775 43.3463 47.7 42.6463 47.55C41.963 47.4 41.3713 47.1583 40.8713 46.825C40.3713 46.475 39.988 46.025 39.7213 45.475C39.4546 44.925 39.3213 44.25 39.3213 43.45C39.3213 42.6833 39.4713 42.0333 39.7713 41.5C40.088 40.9667 40.5046 40.5417 41.0213 40.225C41.538 39.9083 42.1296 39.6833 42.7963 39.55C43.463 39.4 44.1546 39.325 44.8713 39.325C45.3546 39.325 45.7796 39.35 46.1463 39.4C46.5296 39.4333 46.838 39.4833 47.0713 39.55V39.2C47.0713 38.5667 46.8796 38.0583 46.4963 37.675C46.113 37.2917 45.4463 37.1 44.4963 37.1C43.863 37.1 43.238 37.15 42.6213 37.25C42.0046 37.3333 41.4713 37.4583 41.0213 37.625L40.5463 34.625C40.763 34.5583 41.0296 34.4917 41.3463 34.425C41.6796 34.3417 42.038 34.275 42.4213 34.225C42.8046 34.1583 43.2046 34.1083 43.6213 34.075C44.0546 34.025 44.488 34 44.9213 34ZM62.4896 40.525C62.4896 39.325 62.3313 38.475 62.0146 37.975C61.7146 37.475 61.1896 37.225 60.4396 37.225C60.2063 37.225 59.9646 37.2417 59.7146 37.275C59.4646 37.2917 59.223 37.3167 58.9896 37.35V47.5H55.2646V34.8C55.5813 34.7167 55.948 34.6333 56.3646 34.55C56.798 34.45 57.248 34.3667 57.7146 34.3C58.198 34.2167 58.6896 34.1583 59.1896 34.125C59.6896 34.075 60.1813 34.05 60.6646 34.05C61.6146 34.05 62.3813 34.175 62.9646 34.425C63.5646 34.6583 64.0563 34.9417 64.4396 35.275C64.973 34.8917 65.5813 34.5917 66.2646 34.375C66.9646 34.1583 67.6063 34.05 68.1896 34.05C69.2396 34.05 70.098 34.2 70.7646 34.5C71.448 34.7833 71.9896 35.1917 72.3896 35.725C72.7896 36.2583 73.0646 36.8917 73.2146 37.625C73.3646 38.3583 73.4396 39.175 73.4396 40.075V47.5H69.7146V40.525C69.7146 39.325 69.5563 38.475 69.2396 37.975C68.9396 37.475 68.4146 37.225 67.6646 37.225C67.4646 37.225 67.1813 37.275 66.8146 37.375C66.4646 37.475 66.173 37.6 65.9396 37.75C66.0563 38.1333 66.1313 38.5417 66.1646 38.975C66.198 39.3917 66.2146 39.8417 66.2146 40.325V47.5H62.4896V40.525ZM86.4973 41.025C86.4973 39.875 86.2389 38.9583 85.7223 38.275C85.2056 37.575 84.4389 37.225 83.4223 37.225C83.0889 37.225 82.7806 37.2417 82.4973 37.275C82.2139 37.2917 81.9806 37.3167 81.7973 37.35V44.075C82.0306 44.225 82.3306 44.35 82.6973 44.45C83.0806 44.55 83.4639 44.6 83.8473 44.6C85.6139 44.6 86.4973 43.4083 86.4973 41.025ZM90.2973 40.925C90.2973 41.9417 90.1723 42.8667 89.9223 43.7C89.6723 44.5333 89.3056 45.25 88.8223 45.85C88.3389 46.45 87.7389 46.9167 87.0223 47.25C86.3056 47.5833 85.4806 47.75 84.5473 47.75C84.0306 47.75 83.5473 47.7 83.0973 47.6C82.6473 47.5 82.2139 47.3583 81.7973 47.175V52.125H78.0723V34.8C78.4056 34.7 78.7889 34.6083 79.2223 34.525C79.6556 34.425 80.1056 34.3417 80.5723 34.275C81.0556 34.2083 81.5389 34.1583 82.0223 34.125C82.5223 34.075 82.9973 34.05 83.4473 34.05C84.5306 34.05 85.4973 34.2167 86.3473 34.55C87.1973 34.8667 87.9139 35.325 88.4973 35.925C89.0806 36.5083 89.5223 37.225 89.8223 38.075C90.1389 38.925 90.2973 39.875 90.2973 40.925ZM95.4352 27.525L98.9852 31.575L97.2852 33.1L93.1602 29.625L95.4352 27.525ZM106.588 44.825C107.272 44.825 107.755 44.7583 108.038 44.625C108.322 44.4917 108.463 44.2333 108.463 43.85C108.463 43.55 108.28 43.2917 107.913 43.075C107.547 42.8417 106.988 42.5833 106.238 42.3C105.655 42.0833 105.122 41.8583 104.638 41.625C104.172 41.3917 103.772 41.1167 103.438 40.8C103.105 40.4667 102.847 40.075 102.663 39.625C102.48 39.175 102.388 38.6333 102.388 38C102.388 36.7667 102.847 35.7917 103.763 35.075C104.68 34.3583 105.938 34 107.538 34C108.338 34 109.105 34.075 109.838 34.225C110.572 34.3583 111.155 34.5083 111.588 34.675L110.938 37.575C110.505 37.425 110.03 37.2917 109.513 37.175C109.013 37.0583 108.447 37 107.813 37C106.647 37 106.063 37.325 106.063 37.975C106.063 38.125 106.088 38.2583 106.138 38.375C106.188 38.4917 106.288 38.6083 106.438 38.725C106.588 38.825 106.788 38.9417 107.038 39.075C107.305 39.1917 107.638 39.325 108.038 39.475C108.855 39.775 109.53 40.075 110.063 40.375C110.597 40.6583 111.013 40.975 111.313 41.325C111.63 41.6583 111.847 42.0333 111.963 42.45C112.097 42.8667 112.163 43.35 112.163 43.9C112.163 45.2 111.672 46.1833 110.688 46.85C109.722 47.5167 108.347 47.85 106.563 47.85C105.397 47.85 104.422 47.75 103.638 47.55C102.872 47.35 102.338 47.1833 102.038 47.05L102.663 44.025C103.297 44.275 103.947 44.475 104.613 44.625C105.28 44.7583 105.938 44.825 106.588 44.825Z" fill="black"/>
</svg>
