<svg width="14" height="15" viewBox="0 0 14 15" fill="none" xmlns="http://www.w3.org/2000/svg">
<path d="M9.00057 10.1274L10.1631 8.89982C10.3196 8.73654 10.5177 8.62476 10.7333 8.57807C10.9489 8.53137 11.1726 8.55177 11.3774 8.63677L12.7942 9.23411C13.0012 9.32282 13.1786 9.47425 13.3042 9.66929C13.4298 9.86434 13.498 10.0943 13.5 10.3301V13.0702C13.4988 13.2307 13.4669 13.3892 13.4061 13.5363C13.3453 13.6833 13.257 13.8159 13.1465 13.926C13.0359 14.0361 12.9054 14.1214 12.7628 14.1768C12.6203 14.2322 12.4685 14.2566 12.3168 14.2485C2.38896 13.5963 0.385756 4.71845 0.0069113 1.32074C-0.0106749 1.15389 0.00539314 0.985 0.0540583 0.825177C0.102724 0.665354 0.182883 0.518223 0.289263 0.393464C0.395643 0.268704 0.525833 0.169143 0.671268 0.101331C0.816703 0.0335187 0.974087 -0.00100789 1.13307 2.23969e-05H3.63967C3.86334 0.00072155 4.08171 0.0720688 4.26668 0.204887C4.45164 0.337706 4.59475 0.525922 4.6776 0.745326L5.24327 2.24141C5.32643 2.45682 5.34765 2.69333 5.30427 2.9214C5.26089 3.14947 5.15484 3.35898 4.99935 3.52377L3.83687 4.75133C3.83687 4.75133 4.50634 9.53552 9.00057 10.1274Z" fill="#1C9E5F"/>
</svg>
